<svg width="512" height="512" viewBox="0 0 512 512" fill="none" xmlns="http://www.w3.org/2000/svg">
<path d="M416.17 327.47L381.67 332.31C381.67 332.31 355.64 280.94 345.57 260.53C345.57 260.53 345.31 312.23 338.41 326.36C338.41 342.973 324.943 356.44 308.33 356.44H203.67C187.057 356.44 173.59 342.973 173.59 326.36C166.69 312.23 166.43 260.53 166.43 260.53C156.36 280.94 130.33 332.31 130.33 332.31L95.8301 327.47C95.5401 308.79 114.23 244.97 122.86 225.23C131.49 205.49 145.28 187.47 177.87 174.83C210.47 162.19 256 165.33 256 165.33C256 165.33 301.53 162.19 334.13 174.83C366.72 187.47 380.51 205.49 389.14 225.23C397.77 244.97 416.46 308.79 416.17 327.47Z" fill="#DABD1D"/>
<path d="M416.17 327.47L381.67 332.31C381.67 332.31 355.64 280.94 345.57 260.53C345.57 260.53 345.31 312.23 338.41 326.36C338.41 342.973 324.943 356.44 308.33 356.44H203.67C187.057 356.44 173.59 342.973 173.59 326.36C166.69 312.23 166.43 260.53 166.43 260.53C156.36 280.94 130.33 332.31 130.33 332.31L95.8301 327.47C95.5401 308.79 114.23 244.97 122.86 225.23C131.49 205.49 145.28 187.47 177.87 174.83C210.47 162.19 256 205.33 256 205.33C256 205.33 301.53 162.19 334.13 174.83C366.72 187.47 380.51 205.49 389.14 225.23C397.77 244.97 416.46 308.79 416.17 327.47Z" fill="#FFDE25"/>
<rect x="249" y="221" width="14" height="88" fill="#918291"/>
<path d="M189.203 164.645L200.398 170.734C204.34 172.878 203.748 178.711 199.456 180.02L171.174 188.642C170.403 188.877 169.698 189.294 169.12 189.856L127.962 229.922C124.19 233.594 118.016 229.782 119.609 224.764L132.633 183.759C134.64 177.439 138.685 171.962 144.135 168.184L146.79 166.344C151.81 162.864 157.773 161 163.881 161L174.87 161C179.877 161 184.804 162.253 189.203 164.645Z" fill="#E7C505"/>
<path d="M389.141 225.229C380.508 205.491 366.724 187.473 334.129 174.832C301.534 162.192 256 165.334 256 165.334C256 165.334 249.889 164.913 240.547 165C256.714 165.15 282.565 166.821 303.223 174.832C335.818 187.472 349.602 205.49 358.235 225.229C366.868 244.967 385.555 308.787 385.267 327.474L379.625 328.264L381.672 332.305L416.173 327.473C416.461 308.786 397.774 244.967 389.141 225.229Z" fill="#DABD1D"/>
<path d="M321.797 164.645L310.602 170.734C306.66 172.878 307.252 178.711 311.544 180.02L339.826 188.642C340.597 188.877 341.302 189.294 341.88 189.856L383.038 229.922C386.81 233.594 392.984 229.782 391.391 224.764L378.367 183.759C376.36 177.439 372.315 171.962 366.865 168.184L364.21 166.344C359.19 162.864 353.227 161 347.119 161L336.13 161C331.123 161 326.196 162.253 321.797 164.645Z" fill="#E7C505"/>
</svg>
